<?xml version="1.0" standalone="no"?><!DOCTYPE svg PUBLIC "-//W3C//DTD SVG 1.1//EN" "http://www.w3.org/Graphics/SVG/1.1/DTD/svg11.dtd"><svg t="1502169139832" class="icon" style="" viewBox="0 0 1024 1024" version="1.1" xmlns="http://www.w3.org/2000/svg" p-id="4558" xmlns:xlink="http://www.w3.org/1999/xlink" width="200" height="200"><defs><style type="text/css"></style></defs><path d="M512 896c25.6 0 44.8-19.2 44.8-44.8 0-25.6-19.2-44.8-44.8-44.8-25.6 0-44.8 19.2-44.8 44.8 0 25.6 19.2 44.8 44.8 44.8z m0-44.8v19.2-19.2zM787.2 0H236.8c-57.6 0-102.4 44.8-102.4 102.4v819.2c0 57.6 44.8 102.4 102.4 102.4h556.8c57.6 0 102.4-44.8 102.4-102.4V102.4C889.6 44.8 844.8 0 787.2 0z m19.2 915.2c0 19.2 0 19.2-19.2 19.2H262.4c-19.2 0-44.8 0-44.8-19.2v-192h588.8v192z m0-230.4H217.6v-576c0-19.2 0-19.2 19.2-19.2h544c19.2 0 19.2 0 19.2 19.2v576z m-153.6-345.6c19.2 0 32-12.8 32-32s-12.8-32-32-32H576l64-64c12.8-12.8 12.8-38.4 0-51.2-12.8-12.8-38.4-12.8-51.2 0L518.4 230.4s-6.4 6.4-6.4 12.8c0-6.4-6.4-12.8-6.4-19.2L428.8 153.6c-12.8-12.8-32-12.8-44.8 0-12.8 12.8-12.8 38.4 0 51.2l64 64H371.2c-19.2 0-32 12.8-32 32s12.8 32 32 32h102.4v70.4H371.2c-19.2 0-32 12.8-32 32s12.8 32 32 32h102.4v102.4c0 19.2 12.8 32 32 32s32-12.8 32-32V473.6H640c19.2 0 32-12.8 32-32s-12.8-32-32-32H544V339.2h108.8zM505.6 268.8c6.4-6.4 6.4-6.4 6.4-12.8 0 6.4 0 6.4-6.4 12.8z" fill="#FC534B" p-id="4559"></path></svg>