<?xml version="1.0" standalone="no"?><!DOCTYPE svg PUBLIC "-//W3C//DTD SVG 1.1//EN" "http://www.w3.org/Graphics/SVG/1.1/DTD/svg11.dtd"><svg t="1502169265565" class="icon" style="" viewBox="0 0 1024 1024" version="1.1" xmlns="http://www.w3.org/2000/svg" p-id="6752" xmlns:xlink="http://www.w3.org/1999/xlink" width="200" height="200"><defs><style type="text/css"></style></defs><path d="M724.114286 844.068571c-11.702857 0-23.405714-5.851429-30.72-14.628571L528.091429 624.64l-71.68 61.44c-21.942857 150.674286-45.348571 150.674286-64.365715 150.674286 0 0 0 0 0 0-4.388571 0-8.777143-1.462857-14.628571-2.925715-27.794286-13.165714-40.96-45.348571-52.662857-73.142857-4.388571-10.24-10.24-26.331429-13.165715-29.257143-1.462857-1.462857-2.925714-1.462857-4.388571-2.925714-2.925714-2.925714-19.017143-8.777143-29.257143-11.702857-29.257143-10.24-61.44-21.942857-76.068571-49.737143-4.388571-10.24-4.388571-20.48 0-30.72 5.851429-10.24 14.628571-30.72 144.822857-54.125714l58.514286-74.605714L196.022857 349.622857c-13.165714-8.777143-17.554286-24.868571-14.628571-40.96 4.388571-16.091429 16.091429-26.331429 32.182857-29.257143 16.091429-1.462857 33.645714-2.925714 51.2-2.925714 112.64 0 235.52 39.497143 283.794286 55.588571 19.017143-23.405714 54.125714-65.828571 92.16-106.788571 33.645714-38.034286 71.68-45.348571 96.548571-45.348571 29.257143 0 49.737143 10.24 52.662857 11.702857 1.462857 0 2.925714 1.462857 2.925714 1.462857 5.851429 4.388571 14.628571 10.24 19.017143 14.628571 4.388571 4.388571 11.702857 13.165714 16.091429 19.017143 1.462857 1.462857 1.462857 1.462857 2.925714 2.925714 16.091429 26.331429 30.72 92.16-27.794286 149.211429-39.497143 38.034286-81.92 76.068571-103.862857 95.085714 21.942857 54.125714 76.068571 207.725714 65.828572 332.068572C762.148571 829.44 744.594286 844.068571 724.114286 844.068571zM351.085714 687.542857c13.165714 11.702857 21.942857 30.72 29.257143 52.662857 1.462857 2.925714 2.925714 7.314286 4.388572 11.702857 5.851429-23.405714 11.702857-55.588571 14.628571-83.382857 1.462857-7.314286 4.388571-13.165714 10.24-19.017143l102.4-87.771428c5.851429-5.851429 13.165714-7.314286 21.942857-7.314286 7.314286 0 14.628571 4.388571 20.48 10.24l150.674286 184.32c-7.314286-125.805714-68.754286-269.165714-70.217143-270.628571C630.491429 468.114286 633.417143 453.485714 643.657143 446.171429c0 0 61.44-52.662857 117.028571-106.788572 36.571429-35.108571 23.405714-68.754286 19.017143-77.531428-4.388571-4.388571-7.314286-8.777143-8.777143-10.24-1.462857-1.462857-5.851429-4.388571-10.24-8.777143-2.925714-1.462857-11.702857-4.388571-23.405714-4.388572-19.017143 0-36.571429 8.777143-52.662857 26.331429-52.662857 58.514286-102.4 119.954286-102.4 121.417143-7.314286 10.24-21.942857 13.165714-33.645714 8.777143-1.462857 0-146.285714-57.051429-272.091429-58.514286l190.171429 143.36c5.851429 4.388571 10.24 11.702857 11.702857 19.017143 1.462857 7.314286-1.462857 16.091429-5.851429 21.942857l-83.382857 106.788571c-4.388571 5.851429-10.24 8.777143-17.554286 10.24-27.794286 4.388571-58.514286 11.702857-81.92 17.554286 4.388571 1.462857 8.777143 2.925714 11.702857 4.388571C318.902857 667.062857 339.382857 674.377143 351.085714 687.542857z" fill="#00A0EA" p-id="6753"></path></svg>