<?xml version="1.0" standalone="no"?><!DOCTYPE svg PUBLIC "-//W3C//DTD SVG 1.1//EN" "http://www.w3.org/Graphics/SVG/1.1/DTD/svg11.dtd"><svg t="1502169295636" class="icon" style="" viewBox="0 0 1024 1024" version="1.1" xmlns="http://www.w3.org/2000/svg" p-id="7530" xmlns:xlink="http://www.w3.org/1999/xlink" width="200" height="200"><defs><style type="text/css"></style></defs><path d="M226.378 893.349c-15.467 0-31.748-7.921-44.668-21.731-12.456-13.313-19.6-29.642-19.6-44.798V579.173l27.339 8.159a85.578 85.578 0 0 0 24.481 3.598c35.417 0 66.77-20.752 79.875-52.867l4.277-10.48c-21.827 21.074-51.751 34.092-84.718 34.092-31.866 0-61.904-12.39-84.582-34.886-22.667-22.485-35.15-52.214-35.15-83.71v-3.924l74.537-195.037h24.708c-12.292-10.047-20.016-25.384-20.016-42.855 0-30.961 24.252-55.214 55.213-55.214h565.919c30.963 0 55.218 24.253 55.218 55.214 0 17.472-7.725 32.809-20.018 42.855h22.274l76.975 194.915v4.046c0 65.394-54.219 118.596-120.863 118.596-32.058 0-61.239-12.31-82.896-32.365l3.572 8.75c13.112 32.118 44.471 52.871 79.888 52.871 8.254 0 16.531-1.194 24.602-3.551l27.218-7.945v247.386c0 15.155-7.144 31.484-19.6 44.798-12.921 13.811-29.201 21.731-44.668 21.731H226.378z m304.901-355.212c12.946 32.07 43.874 52.793 78.793 52.793 34.915 0 65.841-20.723 78.787-52.793l3.883-9.619c-22.392 21.396-51.877 33.156-83.235 33.156-30.527 0-59.378-11.371-81.687-32.105l3.459 8.568z m-198.075-0.002c12.95 32.071 43.88 52.795 78.798 52.795 35.417 0 66.771-20.752 79.88-52.869l4.28-10.486c-21.827 21.079-51.754 34.1-84.726 34.1-30.531 0-59.384-11.373-81.694-32.112l3.462 8.572z" fill="#FA8303" p-id="7531"></path><path d="M793.993 167.308c19.245 0 33.958 14.714 33.958 33.954 0 19.244-14.714 33.958-33.958 33.958H228.074c-19.239 0-33.953-14.714-33.953-33.958 0-19.24 14.714-33.954 33.953-33.954h565.919m11.318 96.938l2.263 1.131-2.263-1.131m31.694 1.131l70.177 177.701c0 54.328-45.275 97.336-99.603 97.336-55.461 0-99.604-44.138-99.604-97.336 0 54.328-44.138 97.336-98.468 97.336-54.329 0-98.472-44.138-98.472-97.336 0 54.328-45.27 97.336-99.599 97.336s-98.472-44.138-98.472-97.336c0 54.328-45.275 97.336-99.599 97.336-54.329 0-98.472-44.138-98.472-97.336l67.911-177.701h654.201M708.573 546.095c15.797 38.692 54.474 66.095 99.571 66.095 10.622 0 20.865-1.573 30.559-4.403v219.032c0 20.371-22.638 45.27-43.007 45.27H226.379c-20.371 0-43.009-24.899-43.009-45.27V607.704c9.686 2.891 19.936 4.486 30.561 4.486 45.093 0 83.77-27.403 99.56-66.095 15.623 38.692 53.895 66.095 98.511 66.095 45.093 0 83.77-27.403 99.563-66.095 15.619 38.692 53.891 66.095 98.508 66.095 44.616 0 82.881-27.403 98.5-66.095m85.42-421.307H228.074c-20.663 0-39.932 7.89-54.257 22.216-14.326 14.326-22.215 33.595-22.215 54.258 0 7.434 1.021 14.688 2.996 21.596h-1.063l-10.449 27.341-67.911 177.7-2.802 7.331v7.848c0 18.809 3.766 37.119 11.194 54.423 7.133 16.617 17.308 31.548 30.244 44.381a141.431 141.431 0 0 0 27.039 21.023V826.82c0 20.491 9.234 42.113 25.335 59.323 16.925 18.091 38.865 28.467 60.194 28.467h569.317c21.328 0 43.268-10.376 60.192-28.467 16.1-17.21 25.334-38.832 25.334-59.323V562.679a142.152 142.152 0 0 0 26.116-20.02c13.214-12.801 23.608-27.755 30.892-44.446 7.612-17.444 11.472-35.994 11.472-55.135v-8.092l-2.972-7.526-70.177-177.701-9.748-24.684c2.413-7.566 3.666-15.58 3.666-23.813 0-20.664-7.89-39.934-22.217-54.259-14.327-14.326-33.597-22.215-54.261-22.215z" fill="#FFFFFF" p-id="7532"></path></svg>