<?xml version="1.0" standalone="no"?><!DOCTYPE svg PUBLIC "-//W3C//DTD SVG 1.1//EN" "http://www.w3.org/Graphics/SVG/1.1/DTD/svg11.dtd"><svg t="1502169225132" class="icon" style="" viewBox="0 0 1024 1024" version="1.1" xmlns="http://www.w3.org/2000/svg" p-id="5923" xmlns:xlink="http://www.w3.org/1999/xlink" width="200" height="200"><defs><style type="text/css"></style></defs><path d="M524.346 274.466l-22.157-21.962-120.554 119.768h44.26zM581.179 274.466l-28.373 28.222-70.067 69.584h196.965zM415.909 495.653l-16.243 34.183c-10.918 22.438-17.154 35.954-18.714 40.546a281.79 281.79 0 0 1-2.469 7.147h-0.91c-5.285-13.169-17.934-40.459-37.945-81.876h-44.186l50.813 89.414h-38.077v26.899h47.303v20.402h-47.303v27.161h47.303v37.296h41.325V659.53h45.744v-27.161h-45.744v-20.402h45.744v-26.899h-37.037l52.242-89.414h-41.846z" fill="#0EDCD0" p-id="5924"></path><path d="M642.821 7.433H381.186C174.77 7.433 7.433 174.77 7.433 381.18v261.63c0 206.42 167.337 373.759 373.752 373.759H642.82c206.409 0 373.747-167.339 373.747-373.759V381.18C1016.568 174.77 849.23 7.433 642.821 7.433z m190.771 764.063c0 22.026-17.998 39.917-40.199 39.917H230.607c-22.188 0-40.198-17.891-40.198-39.917V412.195c0-22.038 18.01-39.923 40.198-39.923h94.184l149.024-147.99c7.84-7.787 18.128-11.696 28.417-11.696a40.394 40.394 0 0 1 28.459 11.696l22.114 21.957 1.407-1.397c7.841-7.787 18.129-11.696 28.417-11.696 10.287 0 20.575 3.909 28.417 11.696l128.36 127.43h53.984c22.201 0 40.199 17.885 40.199 39.923v359.301h0.003z" fill="#0EDCD0" p-id="5925"></path><path d="M692.896 512c-44.336 0-80.397 35.803-80.397 79.835s36.063 79.856 80.397 79.856 80.398-35.824 80.398-79.856S737.232 512 692.896 512z m1.213 112.778c-17.1 0-30.994-13.959-30.994-31.124 0-17.154 13.896-31.104 30.994-31.104 17.089 0 30.994 13.948 30.994 31.104 0 17.165-13.905 31.124-30.994 31.124z" fill="#0EDCD0" p-id="5926"></path></svg>