<?xml version="1.0" standalone="no"?><!DOCTYPE svg PUBLIC "-//W3C//DTD SVG 1.1//EN" "http://www.w3.org/Graphics/SVG/1.1/DTD/svg11.dtd"><svg t="1502169156966" class="icon" style="" viewBox="0 0 1024 1024" version="1.1" xmlns="http://www.w3.org/2000/svg" p-id="4924" xmlns:xlink="http://www.w3.org/1999/xlink" width="200" height="200"><defs><style type="text/css"></style></defs><path d="M826.514286 593.92c-17.554286-103.862857-89.234286-212.114286-197.485715-258.925714 0 0 1.462857-1.462857 1.462858-1.462857l40.96-54.125715c14.628571-19.017143 17.554286-43.885714 8.777142-65.828571-8.777143-23.405714-30.72-39.497143-57.051428-42.422857-23.405714-2.925714-62.902857-7.314286-111.177143-7.314286-43.885714 0-84.845714 4.388571-111.177143 7.314286-26.331429 2.925714-48.274286 19.017143-57.051428 42.422857-8.777143 21.942857-5.851429 46.811429 8.777142 65.828571l40.96 54.125715c0 0 0 0 1.462858 1.462857-111.177143 46.811429-182.857143 156.525714-197.485715 261.851428-13.165714 87.771429 16.091429 141.897143 43.885715 174.08C292.571429 829.44 380.342857 858.697143 512 858.697143c134.582857 0 223.817143-29.257143 275.017143-90.697143C813.348571 737.28 841.142857 681.691429 826.514286 593.92zM408.137143 229.668571c21.942857-2.925714 61.44-5.851429 103.862857-5.851428 46.811429 0 83.382857 2.925714 103.862857 5.851428 8.777143 1.462857 13.165714 8.777143 8.777143 14.628572l-40.96 54.125714c-2.925714 2.925714-7.314286 4.388571-11.702857 4.388572h-121.417143c-4.388571 0-8.777143-1.462857-11.702857-4.388572l-40.96-54.125714C393.508571 238.445714 397.897143 231.131429 408.137143 229.668571zM512 800.182857c-219.428571 0-272.091429-89.234286-257.462857-196.022857 11.702857-84.845714 76.068571-187.245714 179.931428-222.354286h153.6c103.862857 35.108571 166.765714 138.971429 181.394286 222.354286C787.017143 710.948571 735.817143 800.182857 512 800.182857z" fill="#F05948" p-id="4925"></path><path d="M509.074286 770.925714c-11.702857 0-21.942857-10.24-21.942857-21.942857V513.462857c0-11.702857 10.24-21.942857 21.942857-21.942857s21.942857 10.24 21.942857 21.942857v235.52C531.017143 762.148571 520.777143 770.925714 509.074286 770.925714z" fill="#F05948" p-id="4926"></path><path d="M509.074286 542.72c-5.851429 0-10.24-1.462857-14.628572-5.851429l-78.994285-71.68c-8.777143-8.777143-10.24-21.942857-1.462858-30.72 8.777143-8.777143 21.942857-10.24 30.72-1.462857l78.994286 71.68c8.777143 8.777143 10.24 21.942857 1.462857 30.72C520.777143 539.794286 514.925714 542.72 509.074286 542.72z" fill="#F05948" p-id="4927"></path><path d="M509.074286 542.72c-5.851429 0-10.24-1.462857-14.628572-5.851429-8.777143-8.777143-10.24-21.942857-1.462857-30.72l71.68-78.994285c8.777143-8.777143 21.942857-10.24 30.72-1.462857 8.777143 8.777143 10.24 21.942857 1.462857 30.72l-71.68 78.994285C520.777143 541.257143 514.925714 542.72 509.074286 542.72z" fill="#F05948" p-id="4928"></path><path d="M610.011429 563.2H413.988571c-11.702857 0-21.942857-10.24-21.942857-21.942857s10.24-21.942857 21.942857-21.942857h196.022858c11.702857 0 21.942857 10.24 21.942857 21.942857S621.714286 563.2 610.011429 563.2z" fill="#F05948" p-id="4929"></path><path d="M610.011429 653.897143H413.988571c-11.702857 0-21.942857-10.24-21.942857-21.942857s10.24-21.942857 21.942857-21.942857h196.022858c11.702857 0 21.942857 10.24 21.942857 21.942857S621.714286 653.897143 610.011429 653.897143z" fill="#F05948" p-id="4930"></path></svg>