<?xml version="1.0" standalone="no"?><!DOCTYPE svg PUBLIC "-//W3C//DTD SVG 1.1//EN" "http://www.w3.org/Graphics/SVG/1.1/DTD/svg11.dtd"><svg t="1502169056846" class="icon" style="" viewBox="0 0 1024 1024" version="1.1" xmlns="http://www.w3.org/2000/svg" p-id="3235" xmlns:xlink="http://www.w3.org/1999/xlink" width="200" height="200"><defs><style type="text/css"></style></defs><path d="M512 25.6c-268.8 0-486.4 217.6-486.4 486.4s217.6 486.4 486.4 486.4 486.4-217.6 486.4-486.4-217.6-486.4-486.4-486.4z m-343.04 387.584l44.544 12.288c37.888-130.56 159.744-226.304 304.64-226.304 142.336 0 262.144 92.16 302.592 219.136 0 0.512 0.512 1.024 0.512 1.536v0.512c0.512 1.536 1.024 3.584 1.024 5.12 0 9.728-8.192 17.92-17.92 17.92-7.168 0-13.312-4.096-15.872-10.24h-0.512c-34.304-114.688-142.336-199.168-269.824-199.168-128 0-236.032 84.48-270.336 200.192h-2.56l49.152 13.824-90.624 69.632-34.816-104.448z m435.712 78.848c11.776 0 17.408 5.632 17.408 17.408 0 11.264-5.632 16.896-17.408 16.896h-69.632v27.136h69.632c11.776 0 17.408 5.632 17.408 17.408 0 11.264-5.632 16.896-17.408 16.896h-69.632v56.832c0 7.68-1.024 13.312-3.584 16.384-2.56 3.072-7.168 4.608-14.336 4.608s-12.288-1.536-14.848-4.608c-2.56-3.072-3.584-8.704-3.584-16.384v-56.832H430.08c-11.776 0-17.408-5.632-17.408-17.408 0-6.144 1.536-10.752 4.096-13.312s7.168-3.584 12.288-3.584h69.632v-27.136H430.08c-11.776 0-17.408-5.632-17.408-17.408 0-6.144 1.536-10.752 4.096-13.312s7.168-3.584 12.288-3.584h51.2l-63.488-104.96c-2.56-4.608-4.096-9.216-4.096-13.312s2.048-7.68 5.632-10.24c3.584-3.072 8.192-4.096 13.312-4.096s9.728 3.584 13.824 10.24l71.68 118.784 71.68-118.784c4.608-7.168 8.704-10.752 13.312-10.752 4.608 0 9.216 1.536 13.312 4.096 4.608 3.072 7.168 6.144 7.168 10.24s-1.536 8.704-4.608 13.824l-63.488 104.96h50.176z m217.6 109.568C783.36 730.624 662.016 824.32 518.656 824.32c-143.872 0-265.216-94.208-304.128-223.232h0.512c0-1.024-0.512-2.048-0.512-3.072 0-9.728 8.192-17.92 17.92-17.92 8.192 0 14.848 5.632 16.896 12.8 35.328 113.664 142.336 196.608 268.8 196.608 126.976 0 234.496-83.456 269.312-197.12l-48.64-13.312 90.624-69.632 35.328 104.448-42.496-12.288z" fill="#008FEA" p-id="3236"></path></svg>